<mxfile host="app.diagrams.net" agent="Mozilla/5.0 (Windows NT 10.0; Win64; x64) AppleWebKit/537.36 (KHTML, like Gecko) Chrome/129.0.0.0 Safari/537.36" version="24.7.16">
  <diagram name="Page-1" id="mfTTR9Tr1h7hyJura-la">
    <mxGraphModel dx="2280" dy="786" grid="1" gridSize="10" guides="1" tooltips="1" connect="1" arrows="1" fold="1" page="1" pageScale="1" pageWidth="850" pageHeight="1100" math="0" shadow="0">
      <root>
        <mxCell id="0" />
        <mxCell id="1" parent="0" />
        <mxCell id="xahZjSxltYrcUbJcpkWP-1" value="Network Administrator" style="shape=umlActor;verticalLabelPosition=bottom;verticalAlign=top;html=1;outlineConnect=0;" vertex="1" parent="1">
          <mxGeometry x="-480" y="550" width="30" height="60" as="geometry" />
        </mxCell>
        <mxCell id="xahZjSxltYrcUbJcpkWP-3" value="Hostile Foreign Nation" style="shape=umlActor;verticalLabelPosition=bottom;verticalAlign=top;html=1;outlineConnect=0;fillColor=#000000;" vertex="1" parent="1">
          <mxGeometry x="380" y="310" width="30" height="60" as="geometry" />
        </mxCell>
        <mxCell id="xahZjSxltYrcUbJcpkWP-4" value="Access Suricata IDS/IPS" style="ellipse;whiteSpace=wrap;html=1;" vertex="1" parent="1">
          <mxGeometry x="-270" y="340" width="120" height="80" as="geometry" />
        </mxCell>
        <mxCell id="xahZjSxltYrcUbJcpkWP-9" value="Unauthorized Suricata IDS/IPS&lt;div&gt;Access&lt;/div&gt;" style="ellipse;whiteSpace=wrap;html=1;fillColor=#000000;fontColor=#FFFFFF;" vertex="1" parent="1">
          <mxGeometry x="140" y="300" width="120" height="80" as="geometry" />
        </mxCell>
        <mxCell id="xahZjSxltYrcUbJcpkWP-10" value="" style="endArrow=none;html=1;rounded=0;entryX=0.5;entryY=0.5;entryDx=0;entryDy=0;entryPerimeter=0;exitX=1;exitY=0.5;exitDx=0;exitDy=0;" edge="1" parent="1" source="xahZjSxltYrcUbJcpkWP-9" target="xahZjSxltYrcUbJcpkWP-3">
          <mxGeometry width="50" height="50" relative="1" as="geometry">
            <mxPoint x="-60" y="550" as="sourcePoint" />
            <mxPoint x="-10" y="500" as="targetPoint" />
          </mxGeometry>
        </mxCell>
        <mxCell id="xahZjSxltYrcUbJcpkWP-12" value="View IPS Rules" style="ellipse;whiteSpace=wrap;html=1;" vertex="1" parent="1">
          <mxGeometry x="-100" y="290" width="120" height="80" as="geometry" />
        </mxCell>
        <mxCell id="xahZjSxltYrcUbJcpkWP-16" value="" style="endArrow=none;html=1;rounded=0;exitX=0.5;exitY=0.5;exitDx=0;exitDy=0;exitPerimeter=0;entryX=0;entryY=0.5;entryDx=0;entryDy=0;" edge="1" parent="1" source="xahZjSxltYrcUbJcpkWP-1" target="xahZjSxltYrcUbJcpkWP-4">
          <mxGeometry width="50" height="50" relative="1" as="geometry">
            <mxPoint x="-60" y="630" as="sourcePoint" />
            <mxPoint x="-10" y="580" as="targetPoint" />
          </mxGeometry>
        </mxCell>
        <mxCell id="xahZjSxltYrcUbJcpkWP-17" value="Configure IPS Rules" style="ellipse;whiteSpace=wrap;html=1;" vertex="1" parent="1">
          <mxGeometry x="-100" y="410" width="120" height="80" as="geometry" />
        </mxCell>
        <mxCell id="xahZjSxltYrcUbJcpkWP-22" value="&amp;lt;&amp;lt;includes&amp;gt;&amp;gt;" style="endArrow=open;endSize=12;dashed=1;html=1;rounded=0;exitX=1;exitY=0;exitDx=0;exitDy=0;entryX=0;entryY=0.5;entryDx=0;entryDy=0;" edge="1" parent="1" source="xahZjSxltYrcUbJcpkWP-4" target="xahZjSxltYrcUbJcpkWP-12">
          <mxGeometry width="160" relative="1" as="geometry">
            <mxPoint x="-110" y="520" as="sourcePoint" />
            <mxPoint x="50" y="520" as="targetPoint" />
          </mxGeometry>
        </mxCell>
        <mxCell id="xahZjSxltYrcUbJcpkWP-23" value="&amp;lt;&amp;lt;includes&amp;gt;&amp;gt;" style="endArrow=open;endSize=12;dashed=1;html=1;rounded=0;entryX=0;entryY=0.5;entryDx=0;entryDy=0;" edge="1" parent="1" source="xahZjSxltYrcUbJcpkWP-4" target="xahZjSxltYrcUbJcpkWP-17">
          <mxGeometry width="160" relative="1" as="geometry">
            <mxPoint x="-110" y="520" as="sourcePoint" />
            <mxPoint x="50" y="520" as="targetPoint" />
          </mxGeometry>
        </mxCell>
        <mxCell id="xahZjSxltYrcUbJcpkWP-27" value="&amp;lt;&amp;lt;includes&amp;gt;&amp;gt;" style="endArrow=open;endSize=12;dashed=1;html=1;rounded=0;exitX=0.5;exitY=0;exitDx=0;exitDy=0;entryX=0.5;entryY=1;entryDx=0;entryDy=0;" edge="1" parent="1" source="xahZjSxltYrcUbJcpkWP-17" target="xahZjSxltYrcUbJcpkWP-12">
          <mxGeometry width="160" relative="1" as="geometry">
            <mxPoint x="-110" y="520" as="sourcePoint" />
            <mxPoint x="50" y="520" as="targetPoint" />
          </mxGeometry>
        </mxCell>
        <mxCell id="xahZjSxltYrcUbJcpkWP-28" value="Manipulate IPS Rules" style="ellipse;whiteSpace=wrap;html=1;fillColor=#000000;fontColor=#FFFFFF;" vertex="1" parent="1">
          <mxGeometry x="110" y="410" width="120" height="80" as="geometry" />
        </mxCell>
        <mxCell id="xahZjSxltYrcUbJcpkWP-33" value="&amp;lt;&amp;lt;includes&amp;gt;&amp;gt;" style="endArrow=open;endSize=12;dashed=1;html=1;rounded=0;entryX=1;entryY=0.5;entryDx=0;entryDy=0;" edge="1" parent="1" source="xahZjSxltYrcUbJcpkWP-28" target="xahZjSxltYrcUbJcpkWP-17">
          <mxGeometry width="160" relative="1" as="geometry">
            <mxPoint x="-70" y="660" as="sourcePoint" />
            <mxPoint x="90" y="660" as="targetPoint" />
          </mxGeometry>
        </mxCell>
        <mxCell id="xahZjSxltYrcUbJcpkWP-35" value="&amp;lt;&amp;lt;includes&amp;gt;&amp;gt;" style="endArrow=open;endSize=12;dashed=1;html=1;rounded=0;exitX=0.5;exitY=1;exitDx=0;exitDy=0;entryX=0.5;entryY=0;entryDx=0;entryDy=0;" edge="1" parent="1" source="xahZjSxltYrcUbJcpkWP-9" target="xahZjSxltYrcUbJcpkWP-28">
          <mxGeometry width="160" relative="1" as="geometry">
            <mxPoint x="-110" y="520" as="sourcePoint" />
            <mxPoint x="50" y="520" as="targetPoint" />
          </mxGeometry>
        </mxCell>
        <mxCell id="xahZjSxltYrcUbJcpkWP-36" value="&amp;lt;&amp;lt;includes&amp;gt;&amp;gt;" style="endArrow=open;endSize=12;dashed=1;html=1;rounded=0;exitX=0;exitY=0.5;exitDx=0;exitDy=0;entryX=1;entryY=0.5;entryDx=0;entryDy=0;" edge="1" parent="1" source="xahZjSxltYrcUbJcpkWP-9" target="xahZjSxltYrcUbJcpkWP-12">
          <mxGeometry width="160" relative="1" as="geometry">
            <mxPoint x="-110" y="520" as="sourcePoint" />
            <mxPoint x="50" y="520" as="targetPoint" />
          </mxGeometry>
        </mxCell>
        <mxCell id="xahZjSxltYrcUbJcpkWP-38" value="Unauthorized Network Access" style="ellipse;whiteSpace=wrap;html=1;fillColor=#000000;fontColor=#FFFFFF;" vertex="1" parent="1">
          <mxGeometry x="275" y="470" width="120" height="80" as="geometry" />
        </mxCell>
        <mxCell id="xahZjSxltYrcUbJcpkWP-47" value="&amp;lt;&amp;lt;extends&amp;gt;&amp;gt;" style="endArrow=open;endSize=12;dashed=1;html=1;rounded=0;entryX=0.5;entryY=0;entryDx=0;entryDy=0;exitX=1;exitY=1;exitDx=0;exitDy=0;" edge="1" parent="1" source="xahZjSxltYrcUbJcpkWP-9" target="xahZjSxltYrcUbJcpkWP-38">
          <mxGeometry width="160" relative="1" as="geometry">
            <mxPoint x="350" y="450" as="sourcePoint" />
            <mxPoint x="50" y="520" as="targetPoint" />
          </mxGeometry>
        </mxCell>
        <mxCell id="xahZjSxltYrcUbJcpkWP-48" value="Access IPS Logs" style="ellipse;whiteSpace=wrap;html=1;" vertex="1" parent="1">
          <mxGeometry x="-270" y="450" width="120" height="80" as="geometry" />
        </mxCell>
        <mxCell id="xahZjSxltYrcUbJcpkWP-49" value="" style="endArrow=none;html=1;rounded=0;exitX=0.5;exitY=0.5;exitDx=0;exitDy=0;exitPerimeter=0;" edge="1" parent="1" source="xahZjSxltYrcUbJcpkWP-1" target="xahZjSxltYrcUbJcpkWP-48">
          <mxGeometry width="50" height="50" relative="1" as="geometry">
            <mxPoint x="-60" y="690" as="sourcePoint" />
            <mxPoint x="-10" y="640" as="targetPoint" />
          </mxGeometry>
        </mxCell>
        <mxCell id="xahZjSxltYrcUbJcpkWP-50" value="Access IPS Alerts" style="ellipse;whiteSpace=wrap;html=1;" vertex="1" parent="1">
          <mxGeometry x="-270" y="560" width="120" height="80" as="geometry" />
        </mxCell>
        <mxCell id="xahZjSxltYrcUbJcpkWP-51" value="" style="endArrow=none;html=1;rounded=0;exitX=0;exitY=0;exitDx=0;exitDy=0;entryX=0.5;entryY=0.5;entryDx=0;entryDy=0;entryPerimeter=0;" edge="1" parent="1" source="xahZjSxltYrcUbJcpkWP-50" target="xahZjSxltYrcUbJcpkWP-1">
          <mxGeometry width="50" height="50" relative="1" as="geometry">
            <mxPoint x="-60" y="690" as="sourcePoint" />
            <mxPoint x="-10" y="640" as="targetPoint" />
          </mxGeometry>
        </mxCell>
        <mxCell id="xahZjSxltYrcUbJcpkWP-52" value="&amp;lt;&amp;lt;includes&amp;gt;&amp;gt;" style="endArrow=open;endSize=12;dashed=1;html=1;rounded=0;exitX=0;exitY=0.5;exitDx=0;exitDy=0;entryX=1;entryY=0.5;entryDx=0;entryDy=0;" edge="1" parent="1" source="xahZjSxltYrcUbJcpkWP-38" target="xahZjSxltYrcUbJcpkWP-48">
          <mxGeometry width="160" relative="1" as="geometry">
            <mxPoint x="-110" y="580" as="sourcePoint" />
            <mxPoint x="50" y="580" as="targetPoint" />
          </mxGeometry>
        </mxCell>
        <mxCell id="xahZjSxltYrcUbJcpkWP-54" value="Access Medical Device Addresses" style="ellipse;whiteSpace=wrap;html=1;" vertex="1" parent="1">
          <mxGeometry x="70" y="520" width="120" height="80" as="geometry" />
        </mxCell>
        <mxCell id="xahZjSxltYrcUbJcpkWP-59" value="&amp;lt;&amp;lt;includes&amp;gt;&amp;gt;" style="endArrow=open;endSize=12;dashed=1;html=1;rounded=0;exitX=1;exitY=0.5;exitDx=0;exitDy=0;entryX=0;entryY=0;entryDx=0;entryDy=0;" edge="1" parent="1" source="xahZjSxltYrcUbJcpkWP-28" target="xahZjSxltYrcUbJcpkWP-38">
          <mxGeometry width="160" relative="1" as="geometry">
            <mxPoint x="-110" y="580" as="sourcePoint" />
            <mxPoint x="50" y="580" as="targetPoint" />
          </mxGeometry>
        </mxCell>
        <mxCell id="xahZjSxltYrcUbJcpkWP-60" value="Disrupt Medical Device Operations" style="ellipse;whiteSpace=wrap;html=1;fontColor=#FFFFFF;fillColor=#000000;" vertex="1" parent="1">
          <mxGeometry x="240" y="620" width="120" height="80" as="geometry" />
        </mxCell>
        <mxCell id="xahZjSxltYrcUbJcpkWP-61" value="&amp;lt;&amp;lt;includes&amp;gt;&amp;gt;" style="endArrow=open;endSize=12;dashed=1;html=1;rounded=0;exitX=0.5;exitY=1;exitDx=0;exitDy=0;entryX=0.5;entryY=0;entryDx=0;entryDy=0;" edge="1" parent="1" source="xahZjSxltYrcUbJcpkWP-38" target="xahZjSxltYrcUbJcpkWP-60">
          <mxGeometry width="160" relative="1" as="geometry">
            <mxPoint x="-110" y="580" as="sourcePoint" />
            <mxPoint x="50" y="580" as="targetPoint" />
          </mxGeometry>
        </mxCell>
        <mxCell id="xahZjSxltYrcUbJcpkWP-62" value="Monitor Medical Device Operational Status" style="ellipse;whiteSpace=wrap;html=1;" vertex="1" parent="1">
          <mxGeometry x="-120" y="640" width="120" height="80" as="geometry" />
        </mxCell>
        <mxCell id="xahZjSxltYrcUbJcpkWP-63" value="&amp;lt;&amp;lt;includes&amp;gt;&amp;gt;" style="endArrow=open;endSize=12;dashed=1;html=1;rounded=0;exitX=1;exitY=1;exitDx=0;exitDy=0;" edge="1" parent="1" source="xahZjSxltYrcUbJcpkWP-48" target="xahZjSxltYrcUbJcpkWP-54">
          <mxGeometry width="160" relative="1" as="geometry">
            <mxPoint x="-110" y="580" as="sourcePoint" />
            <mxPoint x="50" y="580" as="targetPoint" />
          </mxGeometry>
        </mxCell>
        <mxCell id="xahZjSxltYrcUbJcpkWP-64" value="&amp;lt;&amp;lt;includes&amp;gt;&amp;gt;" style="endArrow=open;endSize=12;dashed=1;html=1;rounded=0;exitX=1;exitY=0.5;exitDx=0;exitDy=0;entryX=0;entryY=0.5;entryDx=0;entryDy=0;" edge="1" parent="1" source="xahZjSxltYrcUbJcpkWP-50" target="xahZjSxltYrcUbJcpkWP-54">
          <mxGeometry width="160" relative="1" as="geometry">
            <mxPoint x="-130" y="600" as="sourcePoint" />
            <mxPoint x="50" y="580" as="targetPoint" />
          </mxGeometry>
        </mxCell>
        <mxCell id="xahZjSxltYrcUbJcpkWP-65" value="&amp;lt;&amp;lt;includes&amp;gt;&amp;gt;" style="endArrow=open;endSize=12;dashed=1;html=1;rounded=0;exitX=1;exitY=1;exitDx=0;exitDy=0;entryX=0.5;entryY=0;entryDx=0;entryDy=0;" edge="1" parent="1" source="xahZjSxltYrcUbJcpkWP-48" target="xahZjSxltYrcUbJcpkWP-62">
          <mxGeometry width="160" relative="1" as="geometry">
            <mxPoint x="-110" y="580" as="sourcePoint" />
            <mxPoint x="50" y="580" as="targetPoint" />
          </mxGeometry>
        </mxCell>
        <mxCell id="xahZjSxltYrcUbJcpkWP-66" value="&amp;lt;&amp;lt;includes&amp;gt;&amp;gt;" style="endArrow=open;endSize=12;dashed=1;html=1;rounded=0;exitX=1;exitY=1;exitDx=0;exitDy=0;entryX=0;entryY=0;entryDx=0;entryDy=0;" edge="1" parent="1" source="xahZjSxltYrcUbJcpkWP-50" target="xahZjSxltYrcUbJcpkWP-62">
          <mxGeometry width="160" relative="1" as="geometry">
            <mxPoint x="-110" y="580" as="sourcePoint" />
            <mxPoint x="50" y="580" as="targetPoint" />
          </mxGeometry>
        </mxCell>
        <mxCell id="xahZjSxltYrcUbJcpkWP-67" value="&amp;lt;&amp;lt;threatens&amp;gt;&amp;gt;" style="endArrow=open;endSize=12;dashed=1;html=1;rounded=0;entryX=1;entryY=0.5;entryDx=0;entryDy=0;exitX=0;exitY=0.5;exitDx=0;exitDy=0;" edge="1" parent="1" source="xahZjSxltYrcUbJcpkWP-60" target="xahZjSxltYrcUbJcpkWP-62">
          <mxGeometry width="160" relative="1" as="geometry">
            <mxPoint x="-110" y="580" as="sourcePoint" />
            <mxPoint x="50" y="580" as="targetPoint" />
          </mxGeometry>
        </mxCell>
        <mxCell id="xahZjSxltYrcUbJcpkWP-69" value="&amp;lt;&amp;lt;threatens&amp;gt;&amp;gt;" style="endArrow=open;endSize=12;dashed=1;html=1;rounded=0;entryX=1;entryY=0.5;entryDx=0;entryDy=0;exitX=0;exitY=1;exitDx=0;exitDy=0;" edge="1" parent="1" source="xahZjSxltYrcUbJcpkWP-38" target="xahZjSxltYrcUbJcpkWP-54">
          <mxGeometry width="160" relative="1" as="geometry">
            <mxPoint x="-110" y="580" as="sourcePoint" />
            <mxPoint x="50" y="580" as="targetPoint" />
          </mxGeometry>
        </mxCell>
        <mxCell id="xahZjSxltYrcUbJcpkWP-80" value="Implement Audit Logs" style="ellipse;whiteSpace=wrap;html=1;" vertex="1" parent="1">
          <mxGeometry x="-210" y="180" width="120" height="80" as="geometry" />
        </mxCell>
        <mxCell id="xahZjSxltYrcUbJcpkWP-81" value="" style="endArrow=none;html=1;rounded=0;entryX=0;entryY=1;entryDx=0;entryDy=0;exitX=0.5;exitY=0.5;exitDx=0;exitDy=0;exitPerimeter=0;" edge="1" parent="1" source="xahZjSxltYrcUbJcpkWP-1" target="xahZjSxltYrcUbJcpkWP-80">
          <mxGeometry width="50" height="50" relative="1" as="geometry">
            <mxPoint x="-260.44" y="313.65" as="sourcePoint" />
            <mxPoint x="-210.004305733433" y="266.3459648829771" as="targetPoint" />
          </mxGeometry>
        </mxCell>
        <mxCell id="xahZjSxltYrcUbJcpkWP-82" value="&amp;lt;&amp;lt;prevents&amp;gt;&amp;gt;" style="endArrow=open;endSize=12;dashed=1;html=1;rounded=0;exitX=1;exitY=0.5;exitDx=0;exitDy=0;entryX=0.187;entryY=0.138;entryDx=0;entryDy=0;entryPerimeter=0;" edge="1" parent="1" source="xahZjSxltYrcUbJcpkWP-80" target="xahZjSxltYrcUbJcpkWP-28">
          <mxGeometry width="160" relative="1" as="geometry">
            <mxPoint x="30" y="470" as="sourcePoint" />
            <mxPoint x="190" y="470" as="targetPoint" />
            <Array as="points">
              <mxPoint x="110" y="270" />
            </Array>
          </mxGeometry>
        </mxCell>
      </root>
    </mxGraphModel>
  </diagram>
</mxfile>
